# xmcd CD database file
#
# Track frame offsets:
#	150
#	52512
#	84232
#	120787
#	155132
#	201702
#	216452
#	252375
#	297027
#	323315
#
# Disc length: 4747 seconds
#
# Revision: 18
# Processed by: cddbd v1.5.2PL0 Copyright (c) Steve Scherf et al.
# Submitted via: CDex 1.51
#
DISCID=8412890a
DTITLE=Jarrett, Keith - 3 Tokyo '96
DYEAR=1998
DGENRE=Jazz
TTITLE0=It Could Happen To You - live
TTITLE1=Never Let Me Go - live
TTITLE2=Billie's Bounce - live
TTITLE3=Summer Night - live
TTITLE4=I'll Remember April - live
TTITLE5=Mona Lisa - live
TTITLE6=Autumn Leaves - live
TTITLE7=Last Night When We Were Young . Caribbean Sky - live
TTITLE8=John's Abbey - live
TTITLE9=My Funny Valentine and Song - live
EXTD=Recorded live March 30, 1996\nat Orchard Hall, Tokyo\n\n(p) 1998 ECM Records\n(c) 1998 ECM Records YEAR: 1998
EXTT0=Jimmy Van Heusen\nJohnny Burke
EXTT1=Jay Livingston\nRay Evans
EXTT2=Charlie Parker
EXTT3=Harry Warren\nAl Dubin
EXTT4=Gene De Paul\nDon Raye\nPatricia Johnston
EXTT5=Jay Livingston\nRay Evans
EXTT6=Joseph Kosma\nJacques Prevert
EXTT7=Harold Arlen\nE. Y. Harburg\n\nKeith Jarrett
EXTT8=Bud Powell
EXTT9=Richard Rodgers\nLorenz Hart\n\nKeith Jarrett
PLAYORDER=
